<svg width="92" height="31" viewBox="0 0 92 31" fill="none" xmlns="http://www.w3.org/2000/svg">
<path d="M0.259766 16.7621C0.259766 16.1175 0.344401 15.5055 0.513672 14.9261C0.689453 14.3467 0.930339 13.8128 1.23633 13.3246C1.54232 12.8363 1.90365 12.4001 2.32031 12.016C2.74349 11.6253 3.20573 11.2966 3.70703 11.0296C4.20833 10.7562 4.73893 10.5479 5.29883 10.4046C5.85872 10.2549 6.42839 10.18 7.00781 10.18C7.6263 10.18 8.22526 10.2777 8.80469 10.473C9.39062 10.6683 9.94076 10.9352 10.4551 11.2738C10.9694 11.6058 11.4414 11.9964 11.8711 12.4456C12.3008 12.8949 12.6686 13.3734 12.9746 13.8812C13.2806 14.389 13.5182 14.9164 13.6875 15.4632C13.8633 16.0101 13.9512 16.544 13.9512 17.0648C13.9512 18.0674 13.821 18.943 13.5605 19.6917C13.3066 20.4404 12.9583 21.0882 12.5156 21.6351C12.7305 21.863 12.9323 22.0908 13.1211 22.3187C13.3164 22.5466 13.4889 22.7614 13.6387 22.9632C13.7884 23.165 13.9056 23.3506 13.9902 23.5199C14.0814 23.6891 14.127 23.8324 14.127 23.9496C14.127 24.1514 14.0586 24.3174 13.9219 24.4476C13.7852 24.5843 13.5866 24.6527 13.3262 24.6527C13.2415 24.6527 13.1374 24.6462 13.0137 24.6331C12.89 24.6201 12.7663 24.5973 12.6426 24.5648C12.5254 24.5322 12.4115 24.4867 12.3008 24.4281C12.1966 24.376 12.1217 24.3044 12.0762 24.2132C12.0436 24.1677 11.9395 24.0244 11.7637 23.7835C11.5944 23.5427 11.3698 23.2464 11.0898 22.8949C10.4648 23.2855 9.78776 23.5687 9.05859 23.7445C8.33594 23.9203 7.59701 24.0081 6.8418 24.0081C5.81315 24.0081 4.89193 23.8421 4.07813 23.5101C3.26432 23.1781 2.57422 22.6996 2.00781 22.0746C1.44141 21.4496 1.00846 20.6911 0.708984 19.7992C0.409505 18.9007 0.259766 17.8884 0.259766 16.7621ZM2.05664 17.0355C2.05664 17.8493 2.17057 18.585 2.39844 19.2425C2.63281 19.9001 2.95182 20.46 3.35547 20.9222C3.76563 21.3779 4.2474 21.7295 4.80078 21.9769C5.36068 22.2243 5.9694 22.348 6.62695 22.348C7.2194 22.348 7.79557 22.2796 8.35547 22.1429C8.91536 22.0062 9.4362 21.7979 9.91797 21.5179C9.57943 21.1338 9.22135 20.7627 8.84375 20.4046C8.47266 20.04 8.09505 19.7113 7.71094 19.4183V19.1253C7.71094 18.8454 7.75977 18.624 7.85742 18.4613C7.95508 18.292 8.11784 18.2074 8.3457 18.2074C8.50846 18.2074 8.69076 18.2595 8.89258 18.3636C9.0944 18.4678 9.29297 18.5915 9.48828 18.7347C9.6901 18.8714 9.87565 19.0179 10.0449 19.1742C10.2207 19.3239 10.3574 19.4476 10.4551 19.5453C10.5462 19.6429 10.6602 19.7601 10.7969 19.8968C10.9401 20.0335 11.0964 20.1833 11.2656 20.346C11.5586 19.9684 11.7897 19.5387 11.959 19.057C12.1283 18.5687 12.2129 18.0218 12.2129 17.4164C12.2129 16.9736 12.1478 16.5277 12.0176 16.0785C11.8939 15.6227 11.7148 15.1898 11.4805 14.7796C11.2526 14.363 10.9824 13.9756 10.6699 13.6175C10.3574 13.2529 10.0124 12.9372 9.63477 12.6703C9.26367 12.3968 8.86979 12.1852 8.45312 12.0355C8.03646 11.8792 7.61003 11.8011 7.17383 11.8011C6.48372 11.8011 5.82943 11.9183 5.21094 12.1527C4.59245 12.3805 4.04883 12.7158 3.58008 13.1585C3.11133 13.6012 2.74023 14.1481 2.4668 14.7992C2.19336 15.4502 2.05664 16.1956 2.05664 17.0355ZM16.9785 18.1195C16.9785 17.9177 16.985 17.6898 16.998 17.4359C17.0111 17.182 17.0306 16.9183 17.0566 16.6449C17.0827 16.3714 17.112 16.0947 17.1445 15.8148C17.1836 15.5283 17.2259 15.2549 17.2715 14.9945C17.3171 14.7275 17.3659 14.4834 17.418 14.2621C17.4766 14.0342 17.5352 13.8389 17.5938 13.6761C17.6654 13.5003 17.7793 13.3571 17.9355 13.2464C18.0918 13.1292 18.3001 13.0706 18.5605 13.0706C18.7949 13.0706 18.9805 13.1553 19.1172 13.3246C19.2604 13.4938 19.332 13.6956 19.332 13.93C19.332 13.9691 19.2995 14.0928 19.2344 14.3011C19.1758 14.5029 19.1074 14.7764 19.0293 15.1214C18.9577 15.46 18.8893 15.8636 18.8242 16.3324C18.7656 16.7946 18.7363 17.3024 18.7363 17.8558C18.7363 18.0706 18.7461 18.3343 18.7656 18.6468C18.7917 18.9593 18.8372 19.2881 18.9023 19.6331C18.9674 19.9717 19.0586 20.3135 19.1758 20.6585C19.293 20.9971 19.4492 21.3031 19.6445 21.5765C19.8464 21.8499 20.0905 22.0713 20.377 22.2406C20.6634 22.4098 21.0052 22.4945 21.4023 22.4945C21.7409 22.4945 22.0534 22.4424 22.3398 22.3382C22.6263 22.2341 22.8867 22.1006 23.1211 21.9378C23.362 21.7686 23.5768 21.5798 23.7656 21.3714C23.9609 21.1631 24.1335 20.9548 24.2832 20.7464C24.4395 20.5381 24.5729 20.3428 24.6836 20.1605C24.8008 19.9782 24.9017 19.8252 24.9863 19.7015C25.0254 19.3239 25.0547 18.9919 25.0742 18.7054C25.0938 18.4124 25.1068 18.1455 25.1133 17.9046C25.1263 17.6637 25.1328 17.4391 25.1328 17.2308C25.1393 17.016 25.1426 16.7979 25.1426 16.5765C25.1426 16.3486 25.1393 16.1078 25.1328 15.8539C25.1328 15.5934 25.1328 15.2972 25.1328 14.9652V13.8031C25.1328 13.6664 25.1621 13.5524 25.2207 13.4613C25.2858 13.3701 25.3639 13.2953 25.4551 13.2367C25.5462 13.1781 25.6471 13.139 25.7578 13.1195C25.8685 13.0934 25.9694 13.0804 26.0605 13.0804C26.1387 13.0804 26.2233 13.0934 26.3145 13.1195C26.4056 13.1455 26.4902 13.1846 26.5684 13.2367C26.6465 13.2887 26.7116 13.3604 26.7637 13.4515C26.8158 13.5361 26.8418 13.6371 26.8418 13.7542L26.8223 23.0218C26.8223 23.3539 26.7572 23.5785 26.627 23.6956C26.4967 23.8063 26.2982 23.8617 26.0312 23.8617C25.7904 23.8617 25.6016 23.8421 25.4648 23.8031C25.3346 23.7705 25.237 23.7054 25.1719 23.6078C25.1133 23.5101 25.0775 23.3766 25.0645 23.2074C25.0514 23.0381 25.0449 22.82 25.0449 22.5531V21.889C24.8757 22.195 24.6836 22.488 24.4688 22.7679C24.2604 23.0414 24.0163 23.2822 23.7363 23.4906C23.4564 23.6989 23.1341 23.8649 22.7695 23.9886C22.4049 24.1123 21.9883 24.1742 21.5195 24.1742C20.8424 24.1742 20.2598 24.07 19.7715 23.8617C19.2897 23.6598 18.8796 23.3929 18.541 23.0609C18.209 22.7223 17.9388 22.3382 17.7305 21.9085C17.5286 21.4789 17.3691 21.0394 17.252 20.5902C17.1413 20.141 17.0664 19.7015 17.0273 19.2718C16.9948 18.8421 16.9785 18.458 16.9785 18.1195ZM32.1641 10.9417C32.0534 10.9417 31.8939 10.9157 31.6855 10.8636C31.4837 10.805 31.2819 10.7204 31.0801 10.6097C30.8848 10.499 30.7122 10.3591 30.5625 10.1898C30.4193 10.0205 30.3477 9.82195 30.3477 9.59409C30.3477 9.48341 30.3704 9.36948 30.416 9.25229C30.4616 9.1351 30.5234 9.02768 30.6016 8.93002C30.6862 8.83237 30.7871 8.75424 30.9043 8.69565C31.0215 8.63054 31.1517 8.59799 31.2949 8.59799C31.4186 8.59799 31.5716 8.64682 31.7539 8.74448C31.9427 8.84213 32.1217 8.96909 32.291 9.12534C32.4603 9.27508 32.6068 9.44435 32.7305 9.63315C32.8542 9.81544 32.916 9.99448 32.916 10.1703C32.916 10.2158 32.8997 10.2809 32.8672 10.3656C32.8411 10.4502 32.7956 10.5348 32.7305 10.6195C32.6719 10.7041 32.5938 10.779 32.4961 10.8441C32.4049 10.9092 32.2943 10.9417 32.1641 10.9417ZM30.8066 23.0609C30.7936 23.0088 30.7773 22.9079 30.7578 22.7581C30.7448 22.6084 30.7285 22.361 30.709 22.016C30.696 21.6709 30.6829 21.2054 30.6699 20.6195C30.6634 20.027 30.6602 19.2653 30.6602 18.3343C30.6602 17.6052 30.7025 16.8597 30.7871 16.098C30.8783 15.3298 30.9889 14.6039 31.1191 13.9203C31.1257 13.8617 31.1484 13.7835 31.1875 13.6859C31.2331 13.5817 31.2917 13.4808 31.3633 13.3831C31.4414 13.279 31.5326 13.1911 31.6367 13.1195C31.7409 13.0414 31.8613 13.0023 31.998 13.0023C32.1413 13.0023 32.2585 13.0283 32.3496 13.0804C32.4408 13.126 32.5091 13.1943 32.5547 13.2855C32.6068 13.3701 32.6426 13.471 32.6621 13.5882C32.6816 13.6989 32.6914 13.8161 32.6914 13.9398C32.6914 14.2848 32.6784 14.6657 32.6523 15.0824C32.6263 15.4925 32.597 15.9124 32.5645 16.3421C32.5384 16.7653 32.5124 17.182 32.4863 17.5921C32.4668 18.0023 32.457 18.3734 32.457 18.7054C32.457 18.9984 32.4766 19.3304 32.5156 19.7015C32.5612 20.0726 32.61 20.4535 32.6621 20.8441C32.7207 21.2347 32.7695 21.6188 32.8086 21.9964C32.8542 22.3675 32.877 22.7061 32.877 23.0121C32.877 23.3311 32.7956 23.5785 32.6328 23.7542C32.4701 23.9235 32.2878 24.0081 32.0859 24.0081C31.6953 24.0081 31.4023 23.9365 31.207 23.7933C31.0117 23.6566 30.8783 23.4124 30.8066 23.0609ZM36.5391 22.7777C36.5391 22.68 36.627 22.4912 36.8027 22.2113C36.9785 21.9248 37.1966 21.583 37.457 21.1859C37.724 20.7887 38.0104 20.3525 38.3164 19.8773C38.6224 19.3955 38.9023 18.9072 39.1562 18.4124C39.1888 18.3473 39.2767 18.2204 39.4199 18.0316C39.5632 17.8428 39.7292 17.6117 39.918 17.3382C40.1133 17.0583 40.3184 16.7458 40.5332 16.4007C40.748 16.0492 40.9434 15.6781 41.1191 15.2874C41.1322 15.2484 41.1387 15.2191 41.1387 15.1996C41.1387 15.1279 41.0931 15.0628 41.002 15.0042C40.9173 14.9456 40.7871 14.9164 40.6113 14.9164C40.2533 14.9164 39.8952 14.9294 39.5371 14.9554C39.179 14.9815 38.8177 15.014 38.4531 15.0531C38.0951 15.0856 37.7305 15.1149 37.3594 15.141C36.9883 15.167 36.6139 15.18 36.2363 15.18C36.1061 15.18 35.9792 15.1735 35.8555 15.1605C35.7318 15.141 35.6178 15.1052 35.5137 15.0531C35.416 14.9945 35.3346 14.9131 35.2695 14.8089C35.2109 14.6983 35.1816 14.555 35.1816 14.3792C35.1816 14.2946 35.1914 14.1904 35.2109 14.0667C35.237 13.943 35.276 13.8259 35.3281 13.7152C35.3802 13.598 35.4486 13.5003 35.5332 13.4222C35.6178 13.3376 35.7188 13.2953 35.8359 13.2953H39.9277C40.1296 13.2953 40.3249 13.2855 40.5137 13.266C40.709 13.2464 40.9043 13.2269 41.0996 13.2074C41.2949 13.1813 41.4935 13.1585 41.6953 13.139C41.8971 13.1195 42.1055 13.1097 42.3203 13.1097C42.4961 13.1097 42.6393 13.1585 42.75 13.2562C42.8607 13.3473 42.9486 13.4613 43.0137 13.598C43.0853 13.7282 43.1341 13.8682 43.1602 14.0179C43.1862 14.1677 43.1992 14.3011 43.1992 14.4183C43.1992 14.848 43.1178 15.2647 42.9551 15.6683C42.7923 16.072 42.5905 16.4691 42.3496 16.8597C42.1087 17.2438 41.8483 17.6214 41.5684 17.9925C41.2949 18.3636 41.0475 18.7315 40.8262 19.096L39.0195 21.8109C38.9935 21.8434 38.9805 21.8825 38.9805 21.9281C38.9805 22.0062 39.0228 22.068 39.1074 22.1136C39.1986 22.1527 39.3158 22.1787 39.459 22.1917C39.6087 22.2048 39.7747 22.2113 39.957 22.2113C40.1393 22.2113 40.3249 22.2113 40.5137 22.2113C40.7611 22.2113 41.0182 22.2015 41.2852 22.182C41.5586 22.1624 41.8288 22.1299 42.0957 22.0843C42.3691 22.0322 42.6393 21.9639 42.9062 21.8792C43.1732 21.7881 43.4271 21.6742 43.668 21.5374C43.7591 21.4854 43.8503 21.4593 43.9414 21.4593C44.0781 21.4593 44.1986 21.5114 44.3027 21.6156C44.4134 21.7197 44.5046 21.8467 44.5762 21.9964C44.6478 22.1462 44.7031 22.3024 44.7422 22.4652C44.7812 22.6279 44.8008 22.7647 44.8008 22.8753C44.8008 22.999 44.7747 23.1227 44.7227 23.2464C44.6706 23.3701 44.5924 23.4841 44.4883 23.5882C44.3906 23.6859 44.2702 23.764 44.127 23.8226C43.9837 23.8877 43.821 23.9203 43.6387 23.9203C43.5085 23.9203 43.388 23.9105 43.2773 23.891C43.1732 23.8779 43.0723 23.8617 42.9746 23.8421C42.877 23.8291 42.7793 23.8128 42.6816 23.7933C42.5905 23.7803 42.4928 23.7738 42.3887 23.7738C42.0501 23.7738 41.7344 23.777 41.4414 23.7835C41.1484 23.79 40.8587 23.7966 40.5723 23.8031C40.2923 23.8161 40.0059 23.8259 39.7129 23.8324C39.4199 23.8389 39.1042 23.8421 38.7656 23.8421C38.5182 23.8421 38.2611 23.8356 37.9941 23.8226C37.7337 23.8161 37.4961 23.7803 37.2812 23.7152C37.0664 23.6436 36.8874 23.5361 36.7441 23.3929C36.6074 23.2497 36.5391 23.0446 36.5391 22.7777ZM46.6465 19.6527C46.6465 18.7542 46.7767 17.9111 47.0371 17.1234C47.2975 16.3291 47.6816 15.6358 48.1895 15.0433C48.6973 14.4443 49.3255 13.9723 50.0742 13.6273C50.8229 13.2822 51.6823 13.1097 52.6523 13.1097C52.8346 13.1097 53.043 13.1423 53.2773 13.2074C53.5117 13.2725 53.7493 13.3669 53.9902 13.4906C54.2311 13.6143 54.4688 13.764 54.7031 13.9398C54.9375 14.1091 55.1458 14.3011 55.3281 14.516C55.5104 14.7243 55.6569 14.9522 55.7676 15.1996C55.8783 15.447 55.9336 15.7041 55.9336 15.971C55.9336 16.0492 55.9173 16.1468 55.8848 16.264C55.8522 16.3812 55.8066 16.4919 55.748 16.596C55.696 16.7002 55.6309 16.7848 55.5527 16.8499C55.4746 16.915 55.3867 16.9411 55.2891 16.9281C55.1979 16.9085 55.097 16.8369 54.9863 16.7132C54.8757 16.5895 54.7617 16.3845 54.6445 16.098C54.5534 15.8897 54.4232 15.7106 54.2539 15.5609C54.0911 15.4111 53.9023 15.2907 53.6875 15.1996C53.4727 15.1019 53.2415 15.0303 52.9941 14.9847C52.7533 14.9391 52.5124 14.9164 52.2715 14.9164C51.679 14.9164 51.1452 15.0368 50.6699 15.2777C50.2012 15.5186 49.8008 15.8376 49.4688 16.2347C49.1367 16.6253 48.8828 17.0713 48.707 17.5726C48.5312 18.0739 48.4434 18.5817 48.4434 19.096C48.4434 19.7275 48.5378 20.2451 48.7266 20.6488C48.9154 21.0459 49.1823 21.3617 49.5273 21.596C49.8789 21.8239 50.2956 21.9802 50.7773 22.0648C51.2656 22.1494 51.806 22.1917 52.3984 22.1917C52.5742 22.1917 52.7435 22.1983 52.9062 22.2113C53.0755 22.2178 53.2383 22.221 53.3945 22.221C53.5573 22.2145 53.7201 22.1983 53.8828 22.1722C54.0456 22.1462 54.2148 22.0973 54.3906 22.0257C54.5339 21.9606 54.6673 21.8988 54.791 21.8402C54.9017 21.7946 55.0091 21.7523 55.1133 21.7132C55.2174 21.6742 55.2956 21.6546 55.3477 21.6546C55.4128 21.6546 55.5039 21.6742 55.6211 21.7132C55.7383 21.7523 55.8522 21.8174 55.9629 21.9085C56.0801 21.9997 56.181 22.1201 56.2656 22.2699C56.3503 22.4131 56.3926 22.5921 56.3926 22.807C56.3926 22.9177 56.3535 23.0316 56.2754 23.1488C56.2038 23.2595 56.1094 23.3636 55.9922 23.4613C55.8815 23.5524 55.7643 23.6273 55.6406 23.6859C55.5169 23.7445 55.4062 23.7738 55.3086 23.7738H54.5371C54.0814 23.7738 53.6354 23.7933 53.1992 23.8324C52.7695 23.8714 52.3203 23.891 51.8516 23.891C51.1549 23.891 50.4909 23.8259 49.8594 23.6956C49.2279 23.5589 48.6745 23.3278 48.1992 23.0023C47.724 22.6768 47.3464 22.2438 47.0664 21.7035C46.7865 21.1566 46.6465 20.473 46.6465 19.6527ZM59.3711 23.0902C59.3711 22.8428 59.3841 22.5759 59.4102 22.2894C59.4362 21.9964 59.4622 21.7067 59.4883 21.4203C59.5208 21.1273 59.5501 20.8473 59.5762 20.5804C59.6022 20.307 59.6152 20.0628 59.6152 19.848L59.7715 10.1019C59.7715 9.95867 59.8008 9.83172 59.8594 9.72104C59.918 9.61036 59.9928 9.51922 60.084 9.4476C60.1751 9.36948 60.276 9.31088 60.3867 9.27182C60.4974 9.23276 60.6113 9.21323 60.7285 9.21323C60.8132 9.21323 60.9076 9.23276 61.0117 9.27182C61.1159 9.30437 61.2135 9.35971 61.3047 9.43784C61.3958 9.50945 61.4707 9.60385 61.5293 9.72104C61.5879 9.83823 61.6172 9.9782 61.6172 10.141C61.6172 10.6292 61.6042 11.111 61.5781 11.5863C61.5586 12.0615 61.5326 12.5335 61.5 13.0023C61.474 13.4645 61.4479 13.9235 61.4219 14.3792C61.4023 14.835 61.3926 15.2874 61.3926 15.7367C61.3926 16.1143 61.3926 16.4919 61.3926 16.8695C61.3991 17.2406 61.4154 17.6345 61.4414 18.0511C61.8711 17.5759 62.2812 17.1364 62.6719 16.7328C63.0625 16.3291 63.4466 15.9417 63.8242 15.5706C64.2018 15.193 64.5729 14.8252 64.9375 14.4671C65.3086 14.1091 65.6829 13.7412 66.0605 13.3636C66.1517 13.2725 66.2461 13.1683 66.3438 13.0511C66.4414 12.9339 66.5456 12.8265 66.6562 12.7289C66.7669 12.6247 66.8809 12.5368 66.998 12.4652C67.1217 12.3936 67.2552 12.3578 67.3984 12.3578C67.6003 12.3578 67.7663 12.374 67.8965 12.4066C68.0267 12.4391 68.1276 12.4945 68.1992 12.5726C68.2773 12.6442 68.3294 12.7354 68.3555 12.846C68.388 12.9567 68.4043 13.0902 68.4043 13.2464C68.4043 13.3831 68.3848 13.4971 68.3457 13.5882C68.3066 13.6794 68.2546 13.7608 68.1895 13.8324C68.1309 13.8975 68.056 13.9593 67.9648 14.0179C67.8802 14.07 67.7891 14.1286 67.6914 14.1937C67.6198 14.2458 67.5286 14.3174 67.418 14.4085C67.3073 14.4932 67.1868 14.5908 67.0566 14.7015C66.9329 14.8057 66.8027 14.9196 66.666 15.0433C66.5293 15.167 66.3958 15.2874 66.2656 15.4046C65.9531 15.6846 65.6243 15.9906 65.2793 16.3226L66.8711 19.8187C67.0078 20.1117 67.1348 20.3688 67.252 20.5902C67.3757 20.8115 67.4993 21.0329 67.623 21.2542C67.7467 21.4691 67.8737 21.7002 68.0039 21.9476C68.1341 22.1885 68.2741 22.4815 68.4238 22.8265C68.4694 22.9567 68.5085 23.0804 68.541 23.1976C68.5736 23.3018 68.5996 23.4059 68.6191 23.5101C68.6452 23.6078 68.6582 23.6891 68.6582 23.7542C68.6582 23.9235 68.6322 24.0928 68.5801 24.2621C68.528 24.4378 68.4531 24.5941 68.3555 24.7308C68.2643 24.874 68.1536 24.988 68.0234 25.0726C67.8997 25.1637 67.763 25.2093 67.6133 25.2093C67.4245 25.2093 67.2747 25.1345 67.1641 24.9847C67.0599 24.835 66.972 24.6559 66.9004 24.4476C66.8353 24.2458 66.7799 24.0342 66.7344 23.8128C66.6888 23.5915 66.6335 23.4092 66.5684 23.266L63.9805 17.5628L63.3457 18.3636C63.196 18.5524 63.043 18.7477 62.8867 18.9496C62.737 19.1449 62.5807 19.3337 62.418 19.516C62.2552 19.6917 62.0892 19.8512 61.9199 19.9945C61.7507 20.1312 61.5749 20.2289 61.3926 20.2874L61.4414 23.0609C61.4414 23.1781 61.4219 23.2985 61.3828 23.4222C61.3438 23.5394 61.2819 23.6501 61.1973 23.7542C61.1126 23.8519 61.0085 23.9333 60.8848 23.9984C60.7611 24.0635 60.6146 24.096 60.4453 24.096C60.2565 24.096 60.0938 24.057 59.957 23.9789C59.8268 23.9007 59.7161 23.8096 59.625 23.7054C59.5404 23.5947 59.4753 23.4841 59.4297 23.3734C59.3906 23.2562 59.3711 23.1618 59.3711 23.0902Z" fill="#CDD9E5"/>
<path d="M76.2881 20.8008C76.197 20.1888 76.3077 19.6029 76.6202 19.043C76.9457 18.4701 77.4014 17.9297 77.9874 17.4219C78.5733 16.901 79.2634 16.4128 80.0577 15.957C80.8519 15.4883 81.6788 15.0521 82.5381 14.6484C83.3064 14.2969 83.9965 13.9388 84.6084 13.5742C85.2204 13.1966 85.7413 12.7734 86.1709 12.3047C86.6006 11.8359 86.9327 11.2891 87.167 10.6641C87.4014 10.0391 87.5186 9.29688 87.5186 8.4375C87.5186 7.53906 87.3624 6.77083 87.0499 6.13281C86.7374 5.48177 86.3207 4.95443 85.7999 4.55078C85.292 4.13411 84.7061 3.83464 84.042 3.65234C83.391 3.45703 82.7269 3.35938 82.0499 3.35938C81.542 3.35938 81.0928 3.42448 80.7022 3.55469C80.3116 3.67188 79.947 3.82812 79.6084 4.02344C79.2829 4.21875 78.9704 4.42708 78.6709 4.64844C78.3845 4.85677 78.098 5.05859 77.8116 5.25391C77.5251 5.44922 77.2256 5.61198 76.9131 5.74219C76.6006 5.85938 76.2556 5.91797 75.878 5.91797C75.7217 5.91797 75.5655 5.89844 75.4092 5.85938C75.253 5.80729 75.1097 5.72266 74.9795 5.60547C74.8493 5.47526 74.7452 5.30599 74.667 5.09766C74.5889 4.88932 74.5499 4.62891 74.5499 4.31641C74.5499 3.89974 74.6931 3.50911 74.9795 3.14453C75.266 2.77995 75.6371 2.44792 76.0928 2.14844C76.5616 1.83594 77.0824 1.55599 77.6553 1.30859C78.2282 1.0612 78.7946 0.852865 79.3545 0.683594C79.9144 0.514323 80.4353 0.384115 80.917 0.292969C81.4118 0.201823 81.8155 0.15625 82.128 0.15625C83.404 0.15625 84.5824 0.325521 85.6631 0.664062C86.7569 1.0026 87.6944 1.50391 88.4756 2.16797C89.2699 2.83203 89.8884 3.65885 90.3311 4.64844C90.7868 5.63802 91.0147 6.79036 91.0147 8.10547C91.0147 10.1237 90.5394 11.8359 89.5889 13.2422C88.6514 14.6484 87.1475 15.8268 85.0772 16.7773C84.5694 17.0117 84.0355 17.2591 83.4756 17.5195C82.9288 17.7799 82.434 18.0859 81.9913 18.4375C81.5616 18.776 81.223 19.1732 80.9756 19.6289C80.7282 20.0846 80.6566 20.625 80.7608 21.25C80.8259 21.5885 80.8129 21.8945 80.7217 22.168C80.6306 22.4284 80.3897 22.5977 79.9991 22.6758C79.6215 22.7539 79.2243 22.7604 78.8077 22.6953C78.391 22.6302 78.0004 22.513 77.6358 22.3438C77.2842 22.1615 76.9847 21.9401 76.7374 21.6797C76.49 21.4062 76.3402 21.1133 76.2881 20.8008ZM75.1749 28.1055C75.1749 27.806 75.2595 27.513 75.4288 27.2266C75.598 26.9401 75.8129 26.6862 76.0733 26.4648C76.3467 26.2305 76.6397 26.0482 76.9522 25.918C77.2777 25.7747 77.5967 25.7031 77.9092 25.7031C78.2087 25.7031 78.5212 25.7357 78.8467 25.8008C79.1722 25.8529 79.4652 25.9635 79.7256 26.1328C79.9991 26.2891 80.2204 26.5104 80.3897 26.7969C80.559 27.0703 80.6436 27.4219 80.6436 27.8516C80.6436 28.6328 80.4353 29.2318 80.0186 29.6484C79.615 30.0651 79.0095 30.2734 78.2022 30.2734C77.9288 30.2734 77.6163 30.2409 77.2647 30.1758C76.9262 30.1107 76.6006 30 76.2881 29.8438C75.9756 29.6745 75.7087 29.4531 75.4874 29.1797C75.279 28.8932 75.1749 28.5352 75.1749 28.1055Z" fill="#CDD9E5"/>
</svg>